# xmcd
#
# Track frame offsets: 
#        150
#        14042
#        30506
#        44574
#        56575
#        73099
#        87028
#        103052
#        114186
#        127067
#        143694
#        161566
#
# Disc length: 2323 seconds
#
# Revision: 0
# Processed by: cddbd v1.5.2PL0 Copyright (c) Steve Scherf et al.
# Submitted via: ExactAudioCopy v0.99pb4
#
DISCID=a309110c
DTITLE=Various Artist - Bose Private Performances Collection: You Light Up My
DTITLE=Life
DYEAR=1900
DGENRE=Country
TTITLE0=Charly McClain and Mickey Gilley - Candy Man
TTITLE1=Debbie Boone - You Light Up My Life
TTITLE2=Reba McEntire - Love By Love
TTITLE3=Mickey Gilley - That's All That Matters
TTITLE4=Louise Mandrell and R.C. Bannon - Reunited
TTITLE5=Kathy Mattea - Someone Is Falling In Love
TTITLE6=Ed Bruce - When You Fall In Love
TTITLE7=Mel Tillis - I Believe In You
TTITLE8=Janie Fricke - Do Me with Love
TTITLE9=Johnny Rodriguez - North of the Border
TTITLE10=Charlie Rich - My Elusive Dreams
TTITLE11=Moe Bandy - My woman Loves the Devil Out of Me
EXTD=
EXTT0=
EXTT1=
EXTT2=
EXTT3=
EXTT4=
EXTT5=
EXTT6=
EXTT7=
EXTT8=
EXTT9=
EXTT10=
EXTT11=
PLAYORDER=
